<?xml version="1.0" encoding="utf-8"?>
<!-- Generator: Adobe Illustrator 16.0.3, SVG Export Plug-In . SVG Version: 6.00 Build 0)  -->
<!DOCTYPE svg PUBLIC "-//W3C//DTD SVG 1.1//EN" "http://www.w3.org/Graphics/SVG/1.1/DTD/svg11.dtd">
<svg version="1.1" xmlns="http://www.w3.org/2000/svg" xmlns:xlink="http://www.w3.org/1999/xlink" x="0px" y="0px" width="70px"
	 height="70px" viewBox="0 0 70 70" enable-background="new 0 0 70 70" xml:space="preserve">
<g id="stand" display="none">
	<rect x="20.5" y="50.5" display="inline" fill="#E78C57" width="5" height="4"/>
	<rect x="47.5" y="50.5" display="inline" fill="#E78C57" width="4" height="4"/>
	<path display="inline" fill="#E78C57" d="M29.5,49.5h3v-3h-3V49.5z M9.5,57.5h12v-11h-12V57.5z M40.5,49.5h3v-3h-3V49.5z
		 M51.5,57.5h8v-11h-8V57.5z M55.5,23.5v-4h-8v-3h-26v3h-4v12h8v3h26v-3h4v-4h4v-4H55.5z"/>
	<path display="inline" fill="#BD6202" d="M21.5,38.5h-4v4h-8v4h12v4h4v-6h4v-10h-8V38.5z M17.5,64.5h-8v4h20v-8h-12V64.5z
		 M55.5,42.5v-4h-11v8h3v4h4v-4h8v-4H55.5z M55.5,60.5h-12v8h16v-4h-4V60.5z M43.5,34.5h-10v8h6v-4h4V34.5z M40.5,16.5v7h4v-7H40.5z
		 M55.5,27.5h-7v-4h-4v4h-4v4h15V27.5z M25.5,27.5h-4v-7h4V27.5h8v-4h-4v-3h4v-4h-12v3h-4v12h8V27.5z"/>
	<path display="inline" fill="#F33117" d="M47.5,46.5h-3v-8h-5v4h-6v-8h-4v10h-4v10h-4v6h12v-3h7v3h11v-6h-4V46.5z M32.5,49.5h-3v-3
		h3V49.5z M43.5,49.5h-3v-3h3V49.5z M43.5,12.5v-4h-18v4h-4v4h34v-4H43.5z"/>
</g>
<g id="walk1" display="none">
	<path display="inline" fill="#E78C57" d="M33.5,46.5h4v-4h-4V46.5z M14.5,38.5h-8v12h8v-4h4v-4h-4V38.5z M52.5,38.5v4h3v4h8v-8
		H52.5z M55.5,27.5h4v-4h-4v-4h-8v-3h-26v3h-4v12h8v3h26v-3h4V27.5z"/>
	<path display="inline" fill="#BD6202" d="M21.5,60.5h-4v-4h-3v1h-4v8h4v3h11v-4h-4V60.5z M14.5,42.5h7v4h8v-12h-15V42.5z
		 M52.5,42.5v-4h-8v-4h-4v8h8v4h7v-4H52.5z M55.5,46.5v4h-3v11h7v-15H55.5z M40.5,16.5v7h4v-7H40.5z M21.5,19.5h-4v12h8v-4h-4v-7h4
		v7h8v-4h-4v-3h4v-4h-12V19.5z M55.5,27.5h-7v-4h-4v4h-4v4h15V27.5z"/>
	<path display="inline" fill="#F33117" d="M48.5,42.5h-8v-8h-11v12h-8v3h-3v4h-4v3h3v4h12v-3h11v3h12v-10h-4V42.5z M37.5,46.5h-4v-4
		h4V46.5z M43.5,12.5v-4h-18v4h-4v4h34v-4H43.5z"/>
</g>
<g id="walk1_-_reverse" display="none">
	<path display="inline" fill="#E78C57" d="M36.5,42.5h-4v4h4V42.5z M55.5,42.5h-4v4h4v4h8v-12h-8V42.5z M6.5,38.5v8h8v-4h3v-4H6.5z
		 M14.5,31.5h4v3h26v-3h8v-12h-4v-3h-26v3h-8v4h-4v4h4V31.5z"/>
	<path display="inline" fill="#BD6202" d="M48.5,64.5h-4v4h11v-3h4v-8h-4v-1h-3v4h-4V64.5z M55.5,34.5h-15v12h8v-4h7V34.5z
		 M14.5,42.5v4h7v-4h8v-8h-4v4h-8v4H14.5z M10.5,46.5v15h7v-11h-3v-4H10.5z M25.5,16.5v7h4v-7H25.5z M48.5,16.5h-12v4h4v3h-4v4h8v-7
		h4v7h-4v4h8v-12h-4V16.5z M14.5,31.5h15v-4h-4v-4h-4v4h-7V31.5z"/>
	<path display="inline" fill="#F33117" d="M21.5,50.5h-4v10h12v-3h11v3h12v-4h3v-3h-4v-4h-3v-3h-8v-12h-11v8h-8V50.5z M32.5,42.5h4
		v4h-4V42.5z M14.5,12.5v4h34v-4h-4v-4h-18v4H14.5z"/>
</g>
<g id="walk2" display="none">
	<path display="inline" fill="#E78C57" d="M32.5,46.5h4v-4h-4V46.5z M28.5,57.5h5v-4h3v-3h-8V57.5z M44.5,46.5h4v-4h-4V46.5z
		 M52.5,23.5v-4h-8v-3h-23v3h-4v12h8v3h23v-3h4v-4h4v-4H52.5z"/>
	<path display="inline" fill="#BD6202" d="M25.5,53.5v4h3v-19h8v4h8v-4h-4v-4h-19v4h-4v11h4v4H25.5z M44.5,58.5h-10v4h-9v6h11v-4h12
		v-3h-4V58.5z M25.5,27.5h-4v-7h4V27.5h4v-11h-8v3h-4v12h8V27.5z M45.5,27.5v-4h-4v4h-4v4h15v-4H45.5z M37.5,16.5v7h4v-7H37.5z"/>
	<path display="inline" fill="#F33117" d="M17.5,49.5v4h4v-4H17.5z M21.5,53.5v4h4v-4H21.5z M44.5,42.5h-8v4h-4v-4h4v-4h-8v12h8v3
		h-3v4h-8v5h9v-4h10v-5h4v-7h-4V42.5z M43.5,12.5v-4h-18v4h-4v4h31v-4H43.5z"/>
</g>
<g id="walk2_-_reverse">
	<path fill="#E78C57" d="M41.5,42.5h-4v4h4V42.5z M45.5,50.5h-8v3h3v4h5V50.5z M29.5,42.5h-4v4h4V42.5z M17.5,23.5v4h4v4h4v3h23v-3
		h8v-12h-4v-3h-23v3h-8v4H17.5z"/>
	<path fill="#BD6202" d="M52.5,53.5v-4h4v-11h-4v-4h-19v4h-4v4h8v-4h8v19h3v-4H52.5z M29.5,61.5h-4v3h12v4h11v-6h-9v-4h-10V61.5z
		 M48.5,31.5h8v-12h-4v-3h-8v11h4v-7h4v7h-4V31.5z M21.5,27.5v4h15v-4h-4v-4h-4v4H21.5z M32.5,16.5v7h4v-7H32.5z"/>
	<path fill="#F33117" d="M52.5,49.5v4h4v-4H52.5z M48.5,53.5v4h4v-4H48.5z M29.5,46.5h-4v7h4v5h10v4h9v-5h-8v-4h-3v-3h8v-12h-8v4h4
		v4h-4v-4h-8V46.5z M21.5,12.5v4h31v-4h-4v-4h-18v4H21.5z"/>
</g>
<g id="jump" display="none">
	<path display="inline" fill="#E78C57" d="M38.5,50.5h4v-4h-4V50.5z M49.5,50.5h4v-4h-4V50.5z M11.5,42.5h-7v8h4v3h3v-3h4v-4h-4
		V42.5z M53.5,4.5v12h12v-12H53.5z M57.5,19.5h-8v-3h-26v3h-4v12h8v3h26v-3h4v-4h4v-4h-4V19.5z"/>
	<path display="inline" fill="#BD6202" d="M19.5,50.5h-4v3h-3v4h-4v8h4v-4h7v-5h4v-4h-4V50.5z M61.5,46.5h-4v11h7v-19h-3V46.5z
		 M47.5,38.5h-2v-4h-10v3h2v1h2v4h10v-2h-2V38.5z M33.5,38.5h-2v-4h-20v4h-3v4h3v4h16v4h2v-4h6v-5h-2V38.5z M53.5,16.5v3h4v4h4v4h4
		v-11H53.5z M27.5,27.5h-4v-7h4V27.5h8v-4h-4v-3h4v-4h-12v3h-4v12h8V27.5z M50.5,23.5h-4v4h-4v4h11v3h-4v2h2v2h2v-3h4v-4h4v-4h-11
		V23.5z M42.5,16.5v7h4v-7H42.5z"/>
	<path display="inline" fill="#F33117" d="M53.5,50.5h-4v-4h4v-8h-2v-2h-2v-2h-4v4h2v2h2v2h-10v-4h-2v-1h-2v-3h-4v4h2v3h2v5h-6v4h-2
		v-4h-8v6h4v4h-4v8h15v-3h12v-4h11v-11h-4V50.5z M42.5,50.5h-4v-4h4V50.5z M45.5,12.5v-4h-18v4h-4v4h34v-4H45.5z"/>
</g>
</svg>
