<?xml version="1.0" encoding="utf-8"?>
<!-- Generator: Adobe Illustrator 16.0.3, SVG Export Plug-In . SVG Version: 6.00 Build 0)  -->
<!DOCTYPE svg PUBLIC "-//W3C//DTD SVG 1.1//EN" "http://www.w3.org/Graphics/SVG/1.1/DTD/svg11.dtd">
<svg version="1.1" id="linkedin" xmlns="http://www.w3.org/2000/svg" xmlns:xlink="http://www.w3.org/1999/xlink" x="0px" y="0px"
	 width="24px" height="24px" viewBox="0 0 24 24" enable-background="new 0 0 24 24" xml:space="preserve">
<path fill="#FFFFFF" d="M1.277,22.517h4.718V8.319H1.277V22.517z M3.673,1.483C2.057,1.483,1,2.542,1,3.936
	c0,1.36,1.021,2.446,2.61,2.446h0.021c1.654,0,2.671-1.086,2.671-2.446C6.274,2.542,5.286,1.483,3.673,1.483z M17.575,7.993
	c-2.512,0-3.631,1.372-4.254,2.337V8.319H8.604c0.059,1.33,0,14.197,0,14.197h4.718v-7.928c0-0.43,0.026-0.848,0.15-1.153
	c0.344-0.845,1.117-1.726,2.428-1.726c1.697,0,2.385,1.31,2.385,3.211v7.596H23v-8.143C23,10.013,20.669,7.993,17.575,7.993z"/>
</svg>
