<svg xmlns="http://www.w3.org/2000/svg">
  <symbol id="itemBox" viewBox="0 0 160 160">
    <rect fill="#FFAA00" width="160" height="160"/>
    <path d="M139.999,130h-10.001V140h10.001V130z M139.999,20.002h-10.001v10.001h10.001V20.002z M30.001,20.002H20v10.001h10.001
       V20.002z M30.001,130H20V140h10.001V130z M9.999,0H-0.002v10.001H9.999V0z M150,0v150.001H-0.001v10H160V0H150z M70.104,49.918
       h30.006v29.851H90.104V90h-9.998v19.688h19.995V90h20.003V49.813h-9.997V39.688h-50v10.125H50.11v29.957h19.995V49.918z
        M80.107,139.937h19.995v-19.688H80.107V139.937z"/>
    <path fill="#E65B10" d="M-0.001,150.001h10v-140h-10V150.001z M9.999,0.001v10L150,10V0L9.999,0.001z M70.169,130h19.995v-19.688
       H70.169V130z M100.17,29.75h-50v10.125h-9.998v29.957h19.995V39.981h30.006v29.851H80.167v10.23h-9.998V99.75h19.995V80.062h20.003
       V39.875h-9.997V29.75z"/>
  </symbol>
</svg>
